<svg width="700" height="400" viewbox = "0 0 700 400"  xmlns="http://www.w3.org/2000/svg">
<!--<json>{
  "glyph": "0334,0331,0336,0342,0330,0336,0201,0337,0337,0222,0336,0201,0337,0222,0336,0201,0337,0222,0336,0342,0330,0335,0336,0336,0336,0332,0341,0333,0337,0337,0337,0333,0333,0333,0333,0336,0332,0337,0224,0333,0333,0333,0224,0332,0333,0333,0333,0333,0224,0335,0335,0337,0221,0331,0333,0336,0333,0337,0221,0331,0333,0336,0333,0337,0221,0335,0335,0225,0333,0333,0333,0225,0332,0336,0333,0332,0332,0337,0225,0330,0332,0332,0333,0333,0333,0336,0330,0336,0332,0337,",
  "x0": 543.1748759954919,
  "y0": 166.33499049999998,
  "unit": 115.46057660190894,
  "width": 700,
  "height": 400,
  "style": {
    "color0": "black",
    "fill0": "black",
    "line0": 5,
    "color1": "black",
    "fill1": "black",
    "line1": 25,
    "color2": "red",
    "fill2": "red",
    "line2": 1,
    "color3": "#FF7900",
    "fill3": "#FF7900",
    "line3": 1,
    "color4": "yellow",
    "fill4": "yellow",
    "line4": 1,
    "color5": "green",
    "fill5": "green",
    "line5": 1,
    "color6": "blue",
    "fill6": "blue",
    "line6": 1,
    "color7": "purple",
    "fill7": "purple",
    "line7": 1
  },
  "shapes": [
    "0220:0313,0336,0306,0334,0336,0336,0362,0335,0203,0334,0203,0335,0335,0203,0203,0334,0334,0203,0203,0335,0335,0203,0203,0334,0334,0203,0203,0335,0335,0203,0203,0334,0334,0203,0335,0203,0364,0337,0337,0337,0304,",
    "0221:0336,0330,0336,0336,0331,0337,0333,0337,0334,0342,0336,0333,0337,0342,0336,0330,0335,0330,0336,0330,0337,0337,0337,0331,0336,0336,0201,0336,0201,0330,0330,0201,0337,0201,0337,0337,",
    "0222:0313,0336,0336,0230,0230,0230,0230,0337,0337,",
    "0223:0336,0336,0201,0330,0341,0333,0336,0336,0350,0335,0331,0337,0342,0336,0330,0335,0334,0334,0334,0331,0337,0342,0336,0330,0335,0304,0337,0337,0337,0332,0336,0336,0336,0350,0335,0331,0337,0342,0336,0330,0334,0334,0331,0337,0342,0336,0330,0335,0304,0337,0337,0333,0330,0201,0337,0337,",
    "0224:0336,0336,0336,0336,0347,0337,0337,0337,0337,",
    "0225:0335,0335,0336,0336,0201,0334,0331,0337,0362,0203,0335,0350,0335,0310,0336,0203,0335,0335,0203,0354,0335,0335,0335,0336,0330,0334,0334,0304,0313,0330,0337,0337,",
    "0226:0336,0201,0336,0336,0330,0341,0331,0337,0331,0331,0337,0337,",
    "0227:0222,0336,0331,0336,0333,0336,0332,0337,0337,0306,0335,0331,0337,0342,0330,0335,0335,0350,0335,0336,0336,0362,0203,0335,0335,0335,0335,0203,0335,0335,0335,0335,0203,0363,0334,0337,0331,0334,0334,0304,0336,0336,0332,0337,0337,0330,0337,",
    "0230:0313,0336,0366,0330,0333,0333,0336,0331,0337,0367,0335,0335,0366,0331,0331,0333,0333,0336,0330,0337,0367,0335,0335,0337,",
    "0231:0335,0334,0336,0331,0331,0332,0337,0336,0332,0332,0332,0335,0336,0366,0337,0337,0332,0336,0336,0367,0335,0335,0366,0337,0337,0332,0336,0336,0367,0335,0335,0337,0337,0337,0201,0201,0334,0334,0336,0333,0337,0201,0201,0336,0336,0332,0201,0226,0335,0335,0330,0334,0333,0333,0333,0333,0333,0333,0333,0333,0330,0335,0336,0366,0333,0333,0333,0333,0367,0334,0330,0330,0337,0333,0334,0336,0201,0336,0336,0342,0337,0337,0331,0335,0337,0337,",
    "01220:0333,0200,0336,0332,0337,0220,0331,0336,0333,0337,",
    "01221:0333,0200,0336,0332,0337,0221,0331,0336,0333,0337,",
    "01222:0333,0200,0336,0332,0337,0222,0331,0336,0333,0337,",
    "01223:0333,0200,0336,0332,0337,0223,0331,0336,0333,0337,",
    "01224:0333,0200,0336,0330,0332,0224,0331,0333,0337,",
    "01225:0333,0200,0336,0330,0332,0225,0331,0333,0337,",
    "01226:0333,0200,0336,0330,0332,0226,0331,0333,0337,",
    "01227:0333,0200,0336,0332,0337,0227,0336,0331,0331,0333,0337,",
    "01230:0333,0200,0336,0332,0337,0336,0336,0330,0332,0337,0230,0331,0333,0336,0331,0333,0337,0337,",
    "01231:0333,0200,0336,0330,0332,0336,0336,0231,0331,0331,0331,0333,0336,0331,0333,0337,0337,0337,0337,",
    "01232:0333,0200,0336,0330,0332,0232,0331,0333,0337,",
    "01233:0333,0200,0336,0330,0332,0233,0331,0333,0337,",
    "01234:0333,0200,0336,0330,0332,0234,0331,0333,0337,",
    "01235:0333,0200,0336,0330,0332,0235,0331,0333,0337,",
    "01236:0333,0200,0336,0330,0332,0236,0331,0333,0337,",
    "01237:0333,0200,0336,0330,0332,0237,0331,0333,0337,",
    "0240:0220,0336,0331,0333,0336,0321,0335,0342,0335,0335,0342,0335,0330,0330,0332,0332,0337,0337,",
    "01240:0333,0200,0336,0330,0332,0210,0240,0211,0333,0331,0337,",
    "0241:0220,0336,0321,0343,0332,0350,0335,0336,0342,0334,0334,0342,0335,0304,0337,0333,0337,",
    "01241:0333,0200,0336,0332,0330,0210,0241,0211,0333,0331,0337,",
    "0242:0220,0321,0336,0343,0333,0336,0350,0335,0342,0334,0334,0342,0335,0337,0304,0332,0337,",
    "01242:0333,0200,0336,0330,0332,0210,0242,0211,0333,0331,0337,",
    "0243:0220,0336,0331,0332,0336,0321,0343,0332,0350,0334,0336,0342,0335,0335,0342,0337,0334,0334,0335,0304,0332,0330,0330,0337,0337,0333,",
    "01243:0333,0200,0336,0330,0332,0210,0243,0211,0333,0331,0337,",
    "0244:0220,0336,0331,0333,0336,0321,0343,0333,0350,0336,0335,0342,0334,0334,0342,0335,0337,0304,0333,0330,0330,0337,0337,0332,",
    "01244:0333,0200,0336,0330,0332,0210,0244,0211,0333,0331,0337,",
    "0245:0210,0332,0332,0362,0335,0203,0203,0203,0203,0334,0203,0363,0332,0332,0331,0211,",
    "01245:0333,0200,0336,0330,0332,0336,0245,0337,0333,0331,0337,",
    "0246:0210,0332,0332,0335,0306,0336,0330,0335,0335,0335,0321,0362,0203,0335,0335,0203,0364,0331,0350,0335,0337,0366,0333,0333,0333,0333,0334,0334,0334,0334,0367,0335,0336,0342,0334,0334,0342,0330,0330,0330,0330,0335,0335,0335,0304,0337,0211,",
    "01246:0333,0200,0336,0330,0332,0336,0246,",
    "0247:0330,0332,0336,0332,0336,0221,0333,0333,0333,0222,0333,0333,0333,0223,0333,0333,0333,0225,0333,0331,0331,0331,0332,0332,0332,0332,0332,0332,0332,0332,0332,0332,0332,0332,0333,0333,0226,0331,0331,0331,0333,0333,0333,0333,0333,0333,0333,0333,0333,0333,0333,0333,0333,0330,0333,0330,0330,0333,0330,0331,0332,0332,0332,0332,0332,0332,0332,0332,0332,0332,0332,0332,0227,0333,0333,0333,0230,0333,0331,0331,0331,0331,0332,0332,0332,0330,0332,0332,0332,0332,0332,0332,0333,0333,0231,0333,0333,0333,0232,0331,0333,0330,0333,0333,0233,0333,0333,0333,0234,0330,0330,0332,0330,0332,0332,0337,0337,",
    "01247:0333,0200,0336,0330,0332,0220,0336,0247,0337,0331,0333,0337,"
  ]
}</json>-->    <line x1="659" y1="166" x2="601" y2="166" style="stroke:#000000;stroke-width:5" />
    <line x1="601" y1="166" x2="572" y2="166" style="stroke:#000000;stroke-width:5" />
<path    d = "M572,166 C558,166 550,137 565,137" fill = "none" stroke-width = "5" stroke = "#000000" /><path    d = "M565,137 C579,137 558,166 543,166" fill = "none" stroke-width = "5" stroke = "#000000" /><path    d = "M543,166 C529,166 522,137 536,137" fill = "none" stroke-width = "5" stroke = "#000000" /><path    d = "M536,137 C550,137 529,166 514,166" fill = "none" stroke-width = "5" stroke = "#000000" /><path    d = "M514,166 C500,166 493,137 507,137" fill = "none" stroke-width = "5" stroke = "#000000" /><path    d = "M507,137 C522,137 500,166 485,166" fill = "none" stroke-width = "5" stroke = "#000000" /><path    d = "M485,166 C471,166 464,137 478,137" fill = "none" stroke-width = "5" stroke = "#000000" /><path    d = "M478,137 C493,137 471,166 457,166" fill = "none" stroke-width = "5" stroke = "#000000" />    <line x1="457" y1="166" x2="399" y2="166" style="stroke:#000000;stroke-width:5" />
<path    d = "M399,166 C384,166 377,137 392,137" fill = "none" stroke-width = "5" stroke = "#000000" /><path    d = "M392,137 C406,137 384,166 370,166" fill = "none" stroke-width = "5" stroke = "#000000" /><path    d = "M370,166 C356,166 348,137 363,137" fill = "none" stroke-width = "5" stroke = "#000000" /><path    d = "M363,137 C377,137 356,166 341,166" fill = "none" stroke-width = "5" stroke = "#000000" /><path    d = "M341,166 C327,166 319,137 334,137" fill = "none" stroke-width = "5" stroke = "#000000" /><path    d = "M334,137 C348,137 327,166 312,166" fill = "none" stroke-width = "5" stroke = "#000000" /><path    d = "M312,166 C298,166 291,137 305,137" fill = "none" stroke-width = "5" stroke = "#000000" /><path    d = "M305,137 C319,137 298,166 283,166" fill = "none" stroke-width = "5" stroke = "#000000" />    <line x1="283" y1="166" x2="226" y2="166" style="stroke:#000000;stroke-width:5" />
<path    d = "M226,166 C211,166 204,137 218,137" fill = "none" stroke-width = "5" stroke = "#000000" /><path    d = "M218,137 C233,137 211,166 197,166" fill = "none" stroke-width = "5" stroke = "#000000" /><path    d = "M197,166 C182,166 175,137 190,137" fill = "none" stroke-width = "5" stroke = "#000000" /><path    d = "M190,137 C204,137 182,166 168,166" fill = "none" stroke-width = "5" stroke = "#000000" /><path    d = "M168,166 C153,166 146,137 161,137" fill = "none" stroke-width = "5" stroke = "#000000" /><path    d = "M161,137 C175,137 153,166 139,166" fill = "none" stroke-width = "5" stroke = "#000000" /><path    d = "M139,166 C125,166 117,137 132,137" fill = "none" stroke-width = "5" stroke = "#000000" /><path    d = "M132,137 C146,137 125,166 110,166" fill = "none" stroke-width = "5" stroke = "#000000" />    <line x1="110" y1="166" x2="52" y2="166" style="stroke:#000000;stroke-width:5" />
<circle cx="45" cy = "166" r = "7.216286037619309" stroke = "#000000" stroke-width = "5" fill = "none" />
    <circle cx="255" cy = "166" r = "3.6081430188096544" stroke = "#000000" stroke-width = "5" fill = "#000000" />
    <circle cx="428" cy = "166" r = "3.6081430188096544" stroke = "#000000" stroke-width = "5" fill = "#000000" />
    <circle cx="601" cy = "166" r = "3.6081430188096544" stroke = "#000000" stroke-width = "5" fill = "#000000" />
    <line x1="572" y1="210" x2="630" y2="210" style="stroke:#000000;stroke-width:5" />
    <line x1="572" y1="238" x2="630" y2="238" style="stroke:#000000;stroke-width:5" />
    <line x1="601" y1="166" x2="601" y2="195" style="stroke:#000000;stroke-width:5" />
    <line x1="601" y1="195" x2="601" y2="210" style="stroke:#000000;stroke-width:5" />
    <line x1="601" y1="238" x2="601" y2="253" style="stroke:#000000;stroke-width:5" />
    <line x1="601" y1="253" x2="601" y2="282" style="stroke:#000000;stroke-width:5" />
    <line x1="399" y1="210" x2="457" y2="210" style="stroke:#000000;stroke-width:5" />
    <line x1="399" y1="238" x2="457" y2="238" style="stroke:#000000;stroke-width:5" />
    <line x1="428" y1="166" x2="428" y2="195" style="stroke:#000000;stroke-width:5" />
    <line x1="428" y1="195" x2="428" y2="210" style="stroke:#000000;stroke-width:5" />
    <line x1="428" y1="238" x2="428" y2="253" style="stroke:#000000;stroke-width:5" />
    <line x1="428" y1="253" x2="428" y2="282" style="stroke:#000000;stroke-width:5" />
    <line x1="226" y1="210" x2="283" y2="210" style="stroke:#000000;stroke-width:5" />
    <line x1="226" y1="238" x2="283" y2="238" style="stroke:#000000;stroke-width:5" />
    <line x1="255" y1="166" x2="255" y2="195" style="stroke:#000000;stroke-width:5" />
    <line x1="255" y1="195" x2="255" y2="210" style="stroke:#000000;stroke-width:5" />
    <line x1="255" y1="238" x2="255" y2="253" style="stroke:#000000;stroke-width:5" />
    <line x1="255" y1="253" x2="255" y2="282" style="stroke:#000000;stroke-width:5" />
    <line x1="255" y1="282" x2="255" y2="311" style="stroke:#000000;stroke-width:5" />
	<path d = "M226 311 L283 311 L255 340 L226 311 Z" stroke = "#000000" stroke-width = "5" fill = "none" />    <line x1="601" y1="282" x2="601" y2="311" style="stroke:#000000;stroke-width:5" />
	<path d = "M572 311 L630 311 L601 340 L572 311 Z" stroke = "#000000" stroke-width = "5" fill = "none" />    <line x1="428" y1="282" x2="428" y2="311" style="stroke:#000000;stroke-width:5" />
	<path d = "M399 311 L457 311 L428 340 L399 311 Z" stroke = "#000000" stroke-width = "5" fill = "none" /></svg>