<svg width="700" height="400" viewbox = "0 0 700 400"  xmlns="http://www.w3.org/2000/svg">
<!--<json>{
  "glyph": "0334,0331,0336,0342,0330,0336,0201,0337,0337,0222,0336,0201,0337,0222,0336,0201,0337,0222,0336,0342,0330,0335,0336,0336,0336,0332,0341,0333,0337,0337,0337,0333,0333,0333,0333,0336,0332,0337,0224,0333,0333,0333,0224,0332,0333,0333,0333,0333,0224,0335,0335,0337,0221,0331,0333,0336,0333,0337,0221,0331,0333,0336,0333,0337,0221,0335,0335,0225,0333,0333,0333,0225,0332,0336,0333,0332,0332,0337,0225,0330,0332,0332,0333,0333,0333,0336,0330,0336,0332,0114,0365,0332,0332,0332,0332,0332,0332,0114,0365,0332,0332,0332,0332,0332,0332,0114,0365,0336,0331,0333,0333,0336,0330,0332,0337,063,0365,062,0333,0333,0333,0333,0333,0333,0333,0333,0333,0333,0333,0333,0365,0333,0333,0333,0333,0333,0333,0333,0333,0333,0333,0333,0333,061,0365,0331,0331,0331,0331,0331,0331,0331,0331,0331,0333,0333,0333,0333,0333,0333,0333,0337,0103,0365,0332,0332,0332,0332,0332,0332,0103,0365,0332,0332,0332,0332,0332,0332,0103,0365,0333,0336,0331,0336,0330,0337,063,0365,0333,0333,0333,0333,0333,0333,0333,0333,0333,0333,0333,0333,062,0365,0333,0333,0333,0333,0333,0333,0333,0333,0333,0333,0333,0333,061,0365,",
  "x0": 525.6135236322654,
  "y0": 169.39544590909088,
  "unit": 104.96416054718993,
  "width": 700,
  "height": 400,
  "style": {
    "color0": "black",
    "fill0": "black",
    "line0": 5,
    "color1": "black",
    "fill1": "black",
    "line1": 25,
    "color2": "red",
    "fill2": "red",
    "line2": 1,
    "color3": "#FF7900",
    "fill3": "#FF7900",
    "line3": 1,
    "color4": "yellow",
    "fill4": "yellow",
    "line4": 1,
    "color5": "green",
    "fill5": "green",
    "line5": 1,
    "color6": "blue",
    "fill6": "blue",
    "line6": 1,
    "color7": "purple",
    "fill7": "purple",
    "line7": 1
  },
  "shapes": [
    "0220:0313,0336,0306,0334,0336,0336,0362,0335,0203,0334,0203,0335,0335,0203,0203,0334,0334,0203,0203,0335,0335,0203,0203,0334,0334,0203,0203,0335,0335,0203,0203,0334,0334,0203,0335,0203,0364,0337,0337,0337,0304,",
    "0221:0336,0330,0336,0336,0331,0337,0333,0337,0334,0342,0336,0333,0337,0342,0336,0330,0335,0330,0336,0330,0337,0337,0337,0331,0336,0336,0201,0336,0201,0330,0330,0201,0337,0201,0337,0337,",
    "0222:0313,0336,0336,0230,0230,0230,0230,0337,0337,",
    "0223:0336,0336,0201,0330,0341,0333,0336,0336,0350,0335,0331,0337,0342,0336,0330,0335,0334,0334,0334,0331,0337,0342,0336,0330,0335,0304,0337,0337,0337,0332,0336,0336,0336,0350,0335,0331,0337,0342,0336,0330,0334,0334,0331,0337,0342,0336,0330,0335,0304,0337,0337,0333,0330,0201,0337,0337,",
    "0224:0336,0336,0336,0336,0347,0337,0337,0337,0337,",
    "0225:0335,0335,0336,0336,0201,0334,0331,0337,0362,0203,0335,0350,0335,0310,0336,0203,0335,0335,0203,0354,0335,0335,0335,0336,0330,0334,0334,0304,0313,0330,0337,0337,",
    "0226:0336,0201,0336,0336,0330,0341,0331,0337,0331,0331,0337,0337,",
    "0227:0222,0336,0331,0336,0333,0336,0332,0337,0337,0306,0335,0331,0337,0342,0330,0335,0335,0350,0335,0336,0336,0362,0203,0335,0335,0335,0335,0203,0335,0335,0335,0335,0203,0363,0334,0337,0331,0334,0334,0304,0336,0336,0332,0337,0337,0330,0337,",
    "0230:0313,0336,0366,0330,0333,0333,0336,0331,0337,0367,0335,0335,0366,0331,0331,0333,0333,0336,0330,0337,0367,0335,0335,0337,",
    "0231:0335,0334,0336,0331,0331,0332,0337,0336,0332,0332,0332,0335,0336,0366,0337,0337,0332,0336,0336,0367,0335,0335,0366,0337,0337,0332,0336,0336,0367,0335,0335,0337,0337,0337,0201,0201,0334,0334,0336,0333,0337,0201,0201,0336,0336,0332,0201,0226,0335,0335,0330,0334,0333,0333,0333,0333,0333,0333,0333,0333,0330,0335,0336,0366,0333,0333,0333,0333,0367,0334,0330,0330,0337,0333,0334,0336,0201,0336,0336,0342,0337,0337,0331,0335,0337,0337,",
    "01220:0333,0200,0336,0332,0337,0220,0331,0336,0333,0337,",
    "01221:0333,0200,0336,0332,0337,0221,0331,0336,0333,0337,",
    "01222:0333,0200,0336,0332,0337,0222,0331,0336,0333,0337,",
    "01223:0333,0200,0336,0332,0337,0223,0331,0336,0333,0337,",
    "01224:0333,0200,0336,0330,0332,0224,0331,0333,0337,",
    "01225:0333,0200,0336,0330,0332,0225,0331,0333,0337,",
    "01226:0333,0200,0336,0330,0332,0226,0331,0333,0337,",
    "01227:0333,0200,0336,0332,0337,0227,0336,0331,0331,0333,0337,",
    "01230:0333,0200,0336,0332,0337,0336,0336,0330,0332,0337,0230,0331,0333,0336,0331,0333,0337,0337,",
    "01231:0333,0200,0336,0330,0332,0336,0336,0231,0331,0331,0331,0333,0336,0331,0333,0337,0337,0337,0337,",
    "01232:0333,0200,0336,0330,0332,0232,0331,0333,0337,",
    "01233:0333,0200,0336,0330,0332,0233,0331,0333,0337,",
    "01234:0333,0200,0336,0330,0332,0234,0331,0333,0337,",
    "01235:0333,0200,0336,0330,0332,0235,0331,0333,0337,",
    "01236:0333,0200,0336,0330,0332,0236,0331,0333,0337,",
    "01237:0333,0200,0336,0330,0332,0237,0331,0333,0337,",
    "0240:0220,0336,0331,0333,0336,0321,0335,0342,0335,0335,0342,0335,0330,0330,0332,0332,0337,0337,",
    "01240:0333,0200,0336,0330,0332,0210,0240,0211,0333,0331,0337,",
    "0241:0220,0336,0321,0343,0332,0350,0335,0336,0342,0334,0334,0342,0335,0304,0337,0333,0337,",
    "01241:0333,0200,0336,0332,0330,0210,0241,0211,0333,0331,0337,",
    "0242:0220,0321,0336,0343,0333,0336,0350,0335,0342,0334,0334,0342,0335,0337,0304,0332,0337,",
    "01242:0333,0200,0336,0330,0332,0210,0242,0211,0333,0331,0337,",
    "0243:0220,0336,0331,0332,0336,0321,0343,0332,0350,0334,0336,0342,0335,0335,0342,0337,0334,0334,0335,0304,0332,0330,0330,0337,0337,0333,",
    "01243:0333,0200,0336,0330,0332,0210,0243,0211,0333,0331,0337,",
    "0244:0220,0336,0331,0333,0336,0321,0343,0333,0350,0336,0335,0342,0334,0334,0342,0335,0337,0304,0333,0330,0330,0337,0337,0332,",
    "01244:0333,0200,0336,0330,0332,0210,0244,0211,0333,0331,0337,",
    "0245:0210,0332,0332,0362,0335,0203,0203,0203,0203,0334,0203,0363,0332,0332,0331,0211,",
    "01245:0333,0200,0336,0330,0332,0336,0245,0337,0333,0331,0337,",
    "0246:0210,0332,0332,0335,0306,0336,0330,0335,0335,0335,0321,0362,0203,0335,0335,0203,0364,0331,0350,0335,0337,0366,0333,0333,0333,0333,0334,0334,0334,0334,0367,0335,0336,0342,0334,0334,0342,0330,0330,0330,0330,0335,0335,0335,0304,0337,0211,",
    "01246:0333,0200,0336,0330,0332,0336,0246,",
    "0247:0330,0332,0336,0332,0336,0221,0333,0333,0333,0222,0333,0333,0333,0223,0333,0333,0333,0225,0333,0331,0331,0331,0332,0332,0332,0332,0332,0332,0332,0332,0332,0332,0332,0332,0333,0333,0226,0331,0331,0331,0333,0333,0333,0333,0333,0333,0333,0333,0333,0333,0333,0333,0333,0330,0333,0330,0330,0333,0330,0331,0332,0332,0332,0332,0332,0332,0332,0332,0332,0332,0332,0332,0227,0333,0333,0333,0230,0333,0331,0331,0331,0331,0332,0332,0332,0330,0332,0332,0332,0332,0332,0332,0333,0333,0231,0333,0333,0333,0232,0331,0333,0330,0333,0333,0233,0333,0333,0333,0234,0330,0330,0332,0330,0332,0332,0337,0337,",
    "01247:0333,0200,0336,0330,0332,0220,0336,0247,0337,0331,0333,0337,"
  ]
}</json>-->    <line x1="631" y1="169" x2="578" y2="169" style="stroke:#000000;stroke-width:5" />
    <line x1="578" y1="169" x2="552" y2="169" style="stroke:#000000;stroke-width:5" />
<path    d = "M552,169 C539,169 532,143 545,143" fill = "none" stroke-width = "5" stroke = "#000000" /><path    d = "M545,143 C558,143 539,169 526,169" fill = "none" stroke-width = "5" stroke = "#000000" /><path    d = "M526,169 C512,169 506,143 519,143" fill = "none" stroke-width = "5" stroke = "#000000" /><path    d = "M519,143 C532,143 512,169 499,169" fill = "none" stroke-width = "5" stroke = "#000000" /><path    d = "M499,169 C486,169 480,143 493,143" fill = "none" stroke-width = "5" stroke = "#000000" /><path    d = "M493,143 C506,143 486,169 473,169" fill = "none" stroke-width = "5" stroke = "#000000" /><path    d = "M473,169 C460,169 453,143 467,143" fill = "none" stroke-width = "5" stroke = "#000000" /><path    d = "M467,143 C480,143 460,169 447,169" fill = "none" stroke-width = "5" stroke = "#000000" />    <line x1="447" y1="169" x2="394" y2="169" style="stroke:#000000;stroke-width:5" />
<path    d = "M394,169 C381,169 375,143 388,143" fill = "none" stroke-width = "5" stroke = "#000000" /><path    d = "M388,143 C401,143 381,169 368,169" fill = "none" stroke-width = "5" stroke = "#000000" /><path    d = "M368,169 C355,169 348,143 362,143" fill = "none" stroke-width = "5" stroke = "#000000" /><path    d = "M362,143 C375,143 355,169 342,169" fill = "none" stroke-width = "5" stroke = "#000000" /><path    d = "M342,169 C329,169 322,143 335,143" fill = "none" stroke-width = "5" stroke = "#000000" /><path    d = "M335,143 C348,143 329,169 316,169" fill = "none" stroke-width = "5" stroke = "#000000" /><path    d = "M316,169 C303,169 296,143 309,143" fill = "none" stroke-width = "5" stroke = "#000000" /><path    d = "M309,143 C322,143 303,169 289,169" fill = "none" stroke-width = "5" stroke = "#000000" />    <line x1="289" y1="169" x2="237" y2="169" style="stroke:#000000;stroke-width:5" />
<path    d = "M237,169 C224,169 217,143 230,143" fill = "none" stroke-width = "5" stroke = "#000000" /><path    d = "M230,143 C244,143 224,169 211,169" fill = "none" stroke-width = "5" stroke = "#000000" /><path    d = "M211,169 C198,169 191,143 204,143" fill = "none" stroke-width = "5" stroke = "#000000" /><path    d = "M204,143 C217,143 198,169 184,169" fill = "none" stroke-width = "5" stroke = "#000000" /><path    d = "M184,169 C171,169 165,143 178,143" fill = "none" stroke-width = "5" stroke = "#000000" /><path    d = "M178,143 C191,143 171,169 158,169" fill = "none" stroke-width = "5" stroke = "#000000" /><path    d = "M158,169 C145,169 139,143 152,143" fill = "none" stroke-width = "5" stroke = "#000000" /><path    d = "M152,143 C165,143 145,169 132,169" fill = "none" stroke-width = "5" stroke = "#000000" />    <line x1="132" y1="169" x2="80" y2="169" style="stroke:#000000;stroke-width:5" />
<circle cx="73" cy = "169" r = "6.560260034199371" stroke = "#000000" stroke-width = "5" fill = "none" />
    <circle cx="263" cy = "169" r = "3.2801300170996854" stroke = "#000000" stroke-width = "5" fill = "#000000" />
    <circle cx="421" cy = "169" r = "3.2801300170996854" stroke = "#000000" stroke-width = "5" fill = "#000000" />
    <circle cx="578" cy = "169" r = "3.2801300170996854" stroke = "#000000" stroke-width = "5" fill = "#000000" />
    <line x1="552" y1="209" x2="604" y2="209" style="stroke:#000000;stroke-width:5" />
    <line x1="552" y1="235" x2="604" y2="235" style="stroke:#000000;stroke-width:5" />
    <line x1="578" y1="169" x2="578" y2="196" style="stroke:#000000;stroke-width:5" />
    <line x1="578" y1="196" x2="578" y2="209" style="stroke:#000000;stroke-width:5" />
    <line x1="578" y1="235" x2="578" y2="248" style="stroke:#000000;stroke-width:5" />
    <line x1="578" y1="248" x2="578" y2="274" style="stroke:#000000;stroke-width:5" />
    <line x1="394" y1="209" x2="447" y2="209" style="stroke:#000000;stroke-width:5" />
    <line x1="394" y1="235" x2="447" y2="235" style="stroke:#000000;stroke-width:5" />
    <line x1="421" y1="169" x2="421" y2="196" style="stroke:#000000;stroke-width:5" />
    <line x1="421" y1="196" x2="421" y2="209" style="stroke:#000000;stroke-width:5" />
    <line x1="421" y1="235" x2="421" y2="248" style="stroke:#000000;stroke-width:5" />
    <line x1="421" y1="248" x2="421" y2="274" style="stroke:#000000;stroke-width:5" />
    <line x1="237" y1="209" x2="289" y2="209" style="stroke:#000000;stroke-width:5" />
    <line x1="237" y1="235" x2="289" y2="235" style="stroke:#000000;stroke-width:5" />
    <line x1="263" y1="169" x2="263" y2="196" style="stroke:#000000;stroke-width:5" />
    <line x1="263" y1="196" x2="263" y2="209" style="stroke:#000000;stroke-width:5" />
    <line x1="263" y1="235" x2="263" y2="248" style="stroke:#000000;stroke-width:5" />
    <line x1="263" y1="248" x2="263" y2="274" style="stroke:#000000;stroke-width:5" />
    <line x1="263" y1="274" x2="263" y2="301" style="stroke:#000000;stroke-width:5" />
	<path d = "M237 301 L289 301 L263 327 L237 301 Z" stroke = "#000000" stroke-width = "5" fill = "none" />    <line x1="578" y1="274" x2="578" y2="301" style="stroke:#000000;stroke-width:5" />
	<path d = "M552 301 L604 301 L578 327 L552 301 Z" stroke = "#000000" stroke-width = "5" fill = "none" />    <line x1="421" y1="274" x2="421" y2="301" style="stroke:#000000;stroke-width:5" />
	<path d = "M394 301 L447 301 L421 327 L394 301 Z" stroke = "#000000" stroke-width = "5" fill = "none" />    <text x="499" y = "117" fill = "#000000" font-size = "26.24104013679748px" font-family = "Arial">L</text>
    <text x="342" y = "117" fill = "#000000" font-size = "26.24104013679748px" font-family = "Arial">L</text>
    <text x="184" y = "117" fill = "#000000" font-size = "26.24104013679748px" font-family = "Arial">L</text>
    <text x="204" y = "123" fill = "#000000" font-size = "13.12052006839874px" font-family = "Arial">3</text>
    <text x="362" y = "123" fill = "#000000" font-size = "13.12052006839874px" font-family = "Arial">2</text>
    <text x="519" y = "123" fill = "#000000" font-size = "13.12052006839874px" font-family = "Arial">1</text>
    <text x="611" y = "242" fill = "#000000" font-size = "26.24104013679748px" font-family = "Arial">C</text>
    <text x="453" y = "242" fill = "#000000" font-size = "26.24104013679748px" font-family = "Arial">C</text>
    <text x="296" y = "242" fill = "#000000" font-size = "26.24104013679748px" font-family = "Arial">C</text>
    <text x="322" y = "248" fill = "#000000" font-size = "13.12052006839874px" font-family = "Arial">3</text>
    <text x="480" y = "248" fill = "#000000" font-size = "13.12052006839874px" font-family = "Arial">2</text>
    <text x="637" y = "248" fill = "#000000" font-size = "13.12052006839874px" font-family = "Arial">1</text>
</svg>