<svg width="700" height="500" viewbox = "0 0 700 500"  xmlns="http://www.w3.org/2000/svg">
<!--<json>{
  "glyph": "0231,0335,0336,0362,0203,0335,0334,0364,0337,0221,0224,0335,0336,0201,0337,0221,0331,0331,0336,0330,0334,0337,0336,0201,0337,0222,0336,0362,0203,0335,0203,0364,0337,0227,0336,0201,0335,0335,0337,0225,0332,0332,0225,0336,0201,0337,0330,0330,0333,0330,0333,0332,0332,0332,0332,0332,0332,0331,0336,0331,0337,0336,0330,0336,0330,0337,0333,0333,0333,0333,0333,0333,0333,0331,0332,0332,0331,0336,0330,0337,0333,0330,0336,0333,0337,0103,0365,0111,0116,0336,0333,0333,0336,0331,0337,0365,0331,0333,0333,0333,0330,0333,0331,0331,0331,0332,0332,0333,0333,0331,0331,0337,0114,0365,0333,0333,0333,0331,0114,0365,0330,0330,0330,0332,0332,0331,0331,0332,0332,0331,0332,0332,0103,0365,0336,0333,0331,0333,0336,0330,0337,060,0365,0333,0333,0333,0333,0333,0333,0333,0333,0333,0333,0333,0336,0333,0337,0112,0365,0330,0330,0332,0332,0332,0332,0332,0332,060,0365,0330,0330,0330,0330,0333,0330,0333,0330,0332,0332,0332,0332,0332,0332,0332,0332,0332,0332,0332,0332,0332,0332,0332,0332,0332,0332,0332,0332,0332,0332,0332,0332,0330,0335,0334,0336,0331,0337,0337,0350,0335,0337,0366,0336,0336,0333,0334,0334,0337,0337,0367,",
  "x0": 252.29492521002658,
  "y0": 124.54958677685951,
  "unit": 65.17448544075472,
  "width": 700,
  "height": 500,
  "style": {
    "color0": "black",
    "fill0": "black",
    "line0": 5,
    "color1": "black",
    "fill1": "black",
    "line1": 25,
    "color2": "red",
    "fill2": "red",
    "line2": 1,
    "color3": "#FF7900",
    "fill3": "#FF7900",
    "line3": 1,
    "color4": "yellow",
    "fill4": "yellow",
    "line4": 1,
    "color5": "green",
    "fill5": "green",
    "line5": 1,
    "color6": "blue",
    "fill6": "blue",
    "line6": 1,
    "color7": "purple",
    "fill7": "purple",
    "line7": 1
  },
  "shapes": [
    "0220:0313,0336,0306,0334,0336,0336,0362,0335,0203,0334,0203,0335,0335,0203,0203,0334,0334,0203,0203,0335,0335,0203,0203,0334,0334,0203,0203,0335,0335,0203,0203,0334,0334,0203,0335,0203,0364,0337,0337,0337,0304,",
    "0221:0336,0330,0336,0336,0331,0337,0333,0337,0334,0342,0336,0333,0337,0342,0336,0330,0335,0330,0336,0330,0337,0337,0337,0331,0336,0336,0201,0336,0201,0330,0330,0201,0337,0201,0337,0337,",
    "0222:0313,0336,0336,0230,0230,0230,0230,0337,0337,",
    "0223:0336,0336,0201,0330,0341,0333,0336,0336,0350,0335,0331,0337,0342,0336,0330,0335,0334,0334,0334,0331,0337,0342,0336,0330,0335,0304,0337,0337,0337,0332,0336,0336,0336,0350,0335,0331,0337,0342,0336,0330,0334,0334,0331,0337,0342,0336,0330,0335,0304,0337,0337,0333,0330,0201,0337,0337,",
    "0224:0336,0336,0336,0336,0347,0337,0337,0337,0337,",
    "0225:0335,0335,0336,0336,0201,0334,0331,0337,0362,0203,0335,0350,0335,0310,0336,0203,0335,0335,0203,0354,0335,0335,0335,0336,0330,0334,0334,0304,0313,0330,0337,0337,",
    "0226:0336,0201,0336,0336,0330,0341,0331,0337,0331,0331,0337,0337,",
    "0227:0222,0336,0331,0336,0333,0336,0332,0337,0337,0306,0335,0331,0337,0342,0330,0335,0335,0350,0335,0336,0336,0362,0203,0335,0335,0335,0335,0203,0335,0335,0335,0335,0203,0363,0334,0337,0331,0334,0334,0304,0336,0336,0332,0337,0337,0330,0337,",
    "0230:0313,0336,0366,0330,0333,0333,0336,0331,0337,0367,0335,0335,0366,0331,0331,0333,0333,0336,0330,0337,0367,0335,0335,0337,",
    "0231:0335,0334,0336,0331,0331,0332,0337,0336,0332,0332,0332,0335,0336,0366,0337,0337,0332,0336,0336,0367,0335,0335,0366,0337,0337,0332,0336,0336,0367,0335,0335,0337,0337,0337,0201,0201,0334,0334,0336,0333,0337,0201,0201,0336,0336,0332,0201,0226,0335,0335,0330,0334,0333,0333,0333,0333,0333,0333,0333,0333,0330,0335,0336,0366,0333,0333,0333,0333,0367,0334,0330,0330,0337,0333,0334,0336,0201,0336,0336,0342,0337,0337,0331,0335,0337,0337,",
    "01220:0333,0200,0336,0332,0337,0220,0331,0336,0333,0337,",
    "01221:0333,0200,0336,0332,0337,0221,0331,0336,0333,0337,",
    "01222:0333,0200,0336,0332,0337,0222,0331,0336,0333,0337,",
    "01223:0333,0200,0336,0332,0337,0223,0331,0336,0333,0337,",
    "01224:0333,0200,0336,0330,0332,0224,0331,0333,0337,",
    "01225:0333,0200,0336,0330,0332,0225,0331,0333,0337,",
    "01226:0333,0200,0336,0330,0332,0226,0331,0333,0337,",
    "01227:0333,0200,0336,0332,0337,0227,0336,0331,0331,0333,0337,",
    "01230:0333,0200,0336,0332,0337,0336,0336,0330,0332,0337,0230,0331,0333,0336,0331,0333,0337,0337,",
    "01231:0333,0200,0336,0330,0332,0336,0336,0231,0331,0331,0331,0333,0336,0331,0333,0337,0337,0337,0337,",
    "01232:0333,0200,0336,0330,0332,0232,0331,0333,0337,",
    "01233:0333,0200,0336,0330,0332,0233,0331,0333,0337,",
    "01234:0333,0200,0336,0330,0332,0234,0331,0333,0337,",
    "01235:0333,0200,0336,0330,0332,0235,0331,0333,0337,",
    "01236:0333,0200,0336,0330,0332,0236,0331,0333,0337,",
    "01237:0333,0200,0336,0330,0332,0237,0331,0333,0337,",
    "0240:0220,0336,0331,0333,0336,0321,0335,0342,0335,0335,0342,0335,0330,0330,0332,0332,0337,0337,",
    "01240:0333,0200,0336,0330,0332,0210,0240,0211,0333,0331,0337,",
    "0241:0220,0336,0321,0343,0332,0350,0335,0336,0342,0334,0334,0342,0335,0304,0337,0333,0337,",
    "01241:0333,0200,0336,0332,0330,0210,0241,0211,0333,0331,0337,",
    "0242:0220,0321,0336,0343,0333,0336,0350,0335,0342,0334,0334,0342,0335,0337,0304,0332,0337,",
    "01242:0333,0200,0336,0330,0332,0210,0242,0211,0333,0331,0337,",
    "0243:0220,0336,0331,0332,0336,0321,0343,0332,0350,0334,0336,0342,0335,0335,0342,0337,0334,0334,0335,0304,0332,0330,0330,0337,0337,0333,",
    "01243:0333,0200,0336,0330,0332,0210,0243,0211,0333,0331,0337,",
    "0244:0220,0336,0331,0333,0336,0321,0343,0333,0350,0336,0335,0342,0334,0334,0342,0335,0337,0304,0333,0330,0330,0337,0337,0332,",
    "01244:0333,0200,0336,0330,0332,0210,0244,0211,0333,0331,0337,",
    "0245:0210,0332,0332,0362,0335,0203,0203,0203,0203,0334,0203,0363,0332,0332,0331,0211,",
    "01245:0333,0200,0336,0330,0332,0336,0245,0337,0333,0331,0337,",
    "0246:0210,0332,0332,0335,0306,0336,0330,0335,0335,0335,0321,0362,0203,0335,0335,0203,0364,0331,0350,0335,0337,0366,0333,0333,0333,0333,0334,0334,0334,0334,0367,0335,0336,0342,0334,0334,0342,0330,0330,0330,0330,0335,0335,0335,0304,0337,0211,",
    "01246:0333,0200,0336,0330,0332,0336,0246,",
    "0247:0330,0332,0336,0332,0336,0221,0333,0333,0333,0222,0333,0333,0333,0223,0333,0333,0333,0225,0333,0331,0331,0331,0332,0332,0332,0332,0332,0332,0332,0332,0332,0332,0332,0332,0333,0333,0226,0331,0331,0331,0333,0333,0333,0333,0333,0333,0333,0333,0333,0333,0333,0333,0333,0330,0333,0330,0330,0333,0330,0331,0332,0332,0332,0332,0332,0332,0332,0332,0332,0332,0332,0332,0227,0333,0333,0333,0230,0333,0331,0331,0331,0331,0332,0332,0332,0330,0332,0332,0332,0332,0332,0332,0333,0333,0231,0333,0333,0333,0232,0331,0333,0330,0333,0333,0233,0333,0333,0333,0234,0330,0330,0332,0330,0332,0332,0337,0337,",
    "01247:0333,0200,0336,0330,0332,0220,0336,0247,0337,0331,0333,0337,"
  ]
}</json>--><path    d = "M122,190 C138,190 138,125 122,125" fill = "none" stroke-width = "5" stroke = "#000000" /><path    d = "M122,125 C106,125 106,190 122,190" fill = "none" stroke-width = "5" stroke = "#000000" />    <line x1="122" y1="190" x2="252" y2="190" style="stroke:#000000;stroke-width:5" />
    <line x1="252" y1="190" x2="383" y2="190" style="stroke:#000000;stroke-width:5" />
    <line x1="383" y1="125" x2="252" y2="125" style="stroke:#000000;stroke-width:5" />
    <line x1="252" y1="125" x2="122" y2="125" style="stroke:#000000;stroke-width:5" />
    <line x1="122" y1="157" x2="89" y2="157" style="stroke:#000000;stroke-width:5" />
    <line x1="89" y1="157" x2="73" y2="157" style="stroke:#000000;stroke-width:5" />
<circle cx="69" cy = "157" r = "4.07340534004717" stroke = "#000000" stroke-width = "5" fill = "none" />
<path    d = "M383,125 C399,125 399,190 383,190" fill = "none" stroke-width = "5" stroke = "#000000" />    <line x1="415" y1="157" x2="399" y2="157" style="stroke:#000000;stroke-width:5" />
    <line x1="399" y1="157" x2="395" y2="157" style="stroke:#000000;stroke-width:5" />
	<path d = "M415 157 L448 157 " stroke = "#000000" stroke-width = "5" fill = "none" />    <line x1="472" y1="173" x2="472" y2="141" style="stroke:#000000;stroke-width:5" />
    <line x1="489" y1="173" x2="489" y2="141" style="stroke:#000000;stroke-width:5" />
    <line x1="448" y1="157" x2="464" y2="157" style="stroke:#000000;stroke-width:5" />
    <line x1="464" y1="157" x2="472" y2="157" style="stroke:#000000;stroke-width:5" />
    <line x1="489" y1="157" x2="497" y2="157" style="stroke:#000000;stroke-width:5" />
    <line x1="497" y1="157" x2="513" y2="157" style="stroke:#000000;stroke-width:5" />
    <circle cx="513" cy = "157" r = "4.07340534004717" stroke = "#000000" stroke-width = "5" fill = "#000000" />
    <line x1="513" y1="157" x2="513" y2="190" style="stroke:#000000;stroke-width:5" />
    <line x1="497" y1="214" x2="529" y2="214" style="stroke:#000000;stroke-width:5" />
    <line x1="497" y1="230" x2="529" y2="230" style="stroke:#000000;stroke-width:5" />
    <line x1="513" y1="190" x2="513" y2="206" style="stroke:#000000;stroke-width:5" />
    <line x1="513" y1="206" x2="513" y2="214" style="stroke:#000000;stroke-width:5" />
    <line x1="513" y1="230" x2="513" y2="239" style="stroke:#000000;stroke-width:5" />
    <line x1="513" y1="239" x2="513" y2="255" style="stroke:#000000;stroke-width:5" />
    <line x1="513" y1="157" x2="546" y2="157" style="stroke:#000000;stroke-width:5" />
<path    d = "M546,157 C554,157 558,173 550,173" fill = "none" stroke-width = "5" stroke = "#000000" /><path    d = "M550,173 C542,173 554,157 562,157" fill = "none" stroke-width = "5" stroke = "#000000" /><path    d = "M562,157 C570,157 574,173 566,173" fill = "none" stroke-width = "5" stroke = "#000000" /><path    d = "M566,173 C558,173 570,157 578,157" fill = "none" stroke-width = "5" stroke = "#000000" /><path    d = "M578,157 C586,157 590,173 582,173" fill = "none" stroke-width = "5" stroke = "#000000" /><path    d = "M582,173 C574,173 586,157 594,157" fill = "none" stroke-width = "5" stroke = "#000000" /><path    d = "M594,157 C603,157 607,173 599,173" fill = "none" stroke-width = "5" stroke = "#000000" /><path    d = "M599,173 C590,173 603,157 611,157" fill = "none" stroke-width = "5" stroke = "#000000" />	<path d = "M611 157 L643 157 L643 190 " stroke = "#000000" stroke-width = "5" fill = "none" /><path    d = "M643,190 C643,198 627,202 627,194" fill = "none" stroke-width = "5" stroke = "#000000" /><path    d = "M627,194 C627,186 643,198 643,206" fill = "none" stroke-width = "5" stroke = "#000000" /><path    d = "M643,206 C643,214 627,218 627,210" fill = "none" stroke-width = "5" stroke = "#000000" /><path    d = "M627,210 C627,202 643,214 643,222" fill = "none" stroke-width = "5" stroke = "#000000" /><path    d = "M643,222 C643,230 627,235 627,226" fill = "none" stroke-width = "5" stroke = "#000000" /><path    d = "M627,226 C627,218 643,230 643,239" fill = "none" stroke-width = "5" stroke = "#000000" /><path    d = "M643,239 C643,247 627,251 627,243" fill = "none" stroke-width = "5" stroke = "#000000" /><path    d = "M627,243 C627,235 643,247 643,255" fill = "none" stroke-width = "5" stroke = "#000000" />    <line x1="663" y1="206" x2="607" y2="239" style="stroke:#000000;stroke-width:5" />
	<path d = "M607 239 L615 224 L623 239 L607 239 Z" stroke = "#000000" stroke-width = "5" fill = "#000000" />    <line x1="643" y1="255" x2="643" y2="287" style="stroke:#000000;stroke-width:5" />
    <line x1="643" y1="287" x2="643" y2="304" style="stroke:#000000;stroke-width:5" />
	<path d = "M627 304 L660 304 L643 320 L627 304 Z" stroke = "#000000" stroke-width = "5" fill = "none" />    <line x1="513" y1="287" x2="513" y2="304" style="stroke:#000000;stroke-width:5" />
	<path d = "M497 304 L529 304 L513 320 L497 304 Z" stroke = "#000000" stroke-width = "5" fill = "none" />    <line x1="513" y1="287" x2="513" y2="255" style="stroke:#000000;stroke-width:5" />
    <text x="464" y = "125" fill = "#000000" font-size = "32.587242720377354px" font-family = "Arial">C</text>
    <text x="497" y = "133" fill = "#000000" font-size = "16.293621360188677px" font-family = "Arial">IN</text>
    <text x="562" y = "214" fill = "#000000" font-size = "32.587242720377354px" font-family = "Arial">L</text>
    <text x="660" y = "247" fill = "#000000" font-size = "32.587242720377354px" font-family = "Arial">L</text>
    <text x="464" y = "247" fill = "#000000" font-size = "32.587242720377354px" font-family = "Arial">C</text>
    <text x="497" y = "255" fill = "#000000" font-size = "16.293621360188677px" font-family = "Arial">0</text>
    <text x="684" y = "255" fill = "#000000" font-size = "16.293621360188677px" font-family = "Arial">J</text>
    <text x="586" y = "222" fill = "#000000" font-size = "16.293621360188677px" font-family = "Arial">0</text>
<path    d = "M228,116 C274,70 198,70 244,116" fill = "none" stroke-width = "5" stroke = "#000000" /></svg>