<svg width="700" height="400" viewbox = "0 0 700 400"  xmlns="http://www.w3.org/2000/svg">
<!--<json>{
  "glyph": "0336,0336,0336,0336,0332,0332,0332,0332,0332,0332,0330,0332,0337,0337,0337,0337,0334,0331,0336,0342,0330,0336,0201,0337,0337,0222,0336,0201,0337,0222,0336,0201,0337,0222,0336,0342,0330,0335,0336,0336,0336,0332,0341,0333,0337,0337,0337,0333,0333,0333,0333,0336,0332,0337,0224,0333,0333,0333,0224,0332,0333,0333,0333,0333,0224,0335,0335,0337,0221,0331,0333,0336,0333,0337,0221,0331,0333,0336,0333,0337,0221,0335,0335,0225,0333,0333,0333,0225,0332,0336,0333,0332,0332,0337,0225,0330,0332,0332,0333,0333,0333,0336,0330,0336,0332,0114,0365,0332,0332,0332,0332,0332,0332,0114,0365,0332,0332,0332,0332,0332,0332,0114,0365,0336,0331,0333,0333,0336,0330,0332,0337,063,0365,062,0333,0333,0333,0333,0333,0333,0333,0333,0333,0333,0333,0333,0365,0333,0333,0333,0333,0333,0333,0333,0333,0333,0333,0333,0333,061,0365,0331,0331,0331,0331,0331,0331,0331,0331,0331,0333,0333,0333,0333,0333,0333,0333,0337,0103,0365,0332,0332,0332,0332,0332,0332,0103,0365,0332,0332,0332,0332,0332,0332,0103,0365,0333,0336,0331,0336,0330,0337,063,0365,0333,0333,0333,0333,0333,0333,0333,0333,0333,0333,0333,0333,062,0365,0333,0333,0333,0333,0333,0333,0333,0333,0333,0333,0333,0333,061,0365,0330,0330,0330,0330,0330,0334,0331,0337,0336,0331,0332,0332,0337,0117,0120,0105,0116,0365,",
  "x0": 561.3798759954918,
  "y0": 166.33499049999998,
  "unit": 115.46057660190894,
  "width": 700,
  "height": 400,
  "style": {
    "color0": "black",
    "fill0": "black",
    "line0": 5,
    "color1": "black",
    "fill1": "black",
    "line1": 25,
    "color2": "red",
    "fill2": "red",
    "line2": 1,
    "color3": "#FF7900",
    "fill3": "#FF7900",
    "line3": 1,
    "color4": "yellow",
    "fill4": "yellow",
    "line4": 1,
    "color5": "green",
    "fill5": "green",
    "line5": 1,
    "color6": "blue",
    "fill6": "blue",
    "line6": 1,
    "color7": "purple",
    "fill7": "purple",
    "line7": 1
  },
  "shapes": [
    "0220:0313,0336,0306,0334,0336,0336,0362,0335,0203,0334,0203,0335,0335,0203,0203,0334,0334,0203,0203,0335,0335,0203,0203,0334,0334,0203,0203,0335,0335,0203,0203,0334,0334,0203,0335,0203,0364,0337,0337,0337,0304,",
    "0221:0336,0330,0336,0336,0331,0337,0333,0337,0334,0342,0336,0333,0337,0342,0336,0330,0335,0330,0336,0330,0337,0337,0337,0331,0336,0336,0201,0336,0201,0330,0330,0201,0337,0201,0337,0337,",
    "0222:0313,0336,0336,0230,0230,0230,0230,0337,0337,",
    "0223:0336,0336,0201,0330,0341,0333,0336,0336,0350,0335,0331,0337,0342,0336,0330,0335,0334,0334,0334,0331,0337,0342,0336,0330,0335,0304,0337,0337,0337,0332,0336,0336,0336,0350,0335,0331,0337,0342,0336,0330,0334,0334,0331,0337,0342,0336,0330,0335,0304,0337,0337,0333,0330,0201,0337,0337,",
    "0224:0336,0336,0336,0336,0347,0337,0337,0337,0337,",
    "0225:0335,0335,0336,0336,0201,0334,0331,0337,0362,0203,0335,0350,0335,0310,0336,0203,0335,0335,0203,0354,0335,0335,0335,0336,0330,0334,0334,0304,0313,0330,0337,0337,",
    "0226:0336,0201,0336,0336,0330,0341,0331,0337,0331,0331,0337,0337,",
    "0227:0222,0336,0331,0336,0333,0336,0332,0337,0337,0306,0335,0331,0337,0342,0330,0335,0335,0350,0335,0336,0336,0362,0203,0335,0335,0335,0335,0203,0335,0335,0335,0335,0203,0363,0334,0337,0331,0334,0334,0304,0336,0336,0332,0337,0337,0330,0337,",
    "0230:0313,0336,0366,0330,0333,0333,0336,0331,0337,0367,0335,0335,0366,0331,0331,0333,0333,0336,0330,0337,0367,0335,0335,0337,",
    "0231:0335,0334,0336,0331,0331,0332,0337,0336,0332,0332,0332,0335,0336,0366,0337,0337,0332,0336,0336,0367,0335,0335,0366,0337,0337,0332,0336,0336,0367,0335,0335,0337,0337,0337,0201,0201,0334,0334,0336,0333,0337,0201,0201,0336,0336,0332,0201,0226,0335,0335,0330,0334,0333,0333,0333,0333,0333,0333,0333,0333,0330,0335,0336,0366,0333,0333,0333,0333,0367,0334,0330,0330,0337,0333,0334,0336,0201,0336,0336,0342,0337,0337,0331,0335,0337,0337,",
    "01220:0333,0200,0336,0332,0337,0220,0331,0336,0333,0337,",
    "01221:0333,0200,0336,0332,0337,0221,0331,0336,0333,0337,",
    "01222:0333,0200,0336,0332,0337,0222,0331,0336,0333,0337,",
    "01223:0333,0200,0336,0332,0337,0223,0331,0336,0333,0337,",
    "01224:0333,0200,0336,0330,0332,0224,0331,0333,0337,",
    "01225:0333,0200,0336,0330,0332,0225,0331,0333,0337,",
    "01226:0333,0200,0336,0330,0332,0226,0331,0333,0337,",
    "01227:0333,0200,0336,0332,0337,0227,0336,0331,0331,0333,0337,",
    "01230:0333,0200,0336,0332,0337,0336,0336,0330,0332,0337,0230,0331,0333,0336,0331,0333,0337,0337,",
    "01231:0333,0200,0336,0330,0332,0336,0336,0231,0331,0331,0331,0333,0336,0331,0333,0337,0337,0337,0337,",
    "01232:0333,0200,0336,0330,0332,0232,0331,0333,0337,",
    "01233:0333,0200,0336,0330,0332,0233,0331,0333,0337,",
    "01234:0333,0200,0336,0330,0332,0234,0331,0333,0337,",
    "01235:0333,0200,0336,0330,0332,0235,0331,0333,0337,",
    "01236:0333,0200,0336,0330,0332,0236,0331,0333,0337,",
    "01237:0333,0200,0336,0330,0332,0237,0331,0333,0337,",
    "0240:0220,0336,0331,0333,0336,0321,0335,0342,0335,0335,0342,0335,0330,0330,0332,0332,0337,0337,",
    "01240:0333,0200,0336,0330,0332,0210,0240,0211,0333,0331,0337,",
    "0241:0220,0336,0321,0343,0332,0350,0335,0336,0342,0334,0334,0342,0335,0304,0337,0333,0337,",
    "01241:0333,0200,0336,0332,0330,0210,0241,0211,0333,0331,0337,",
    "0242:0220,0321,0336,0343,0333,0336,0350,0335,0342,0334,0334,0342,0335,0337,0304,0332,0337,",
    "01242:0333,0200,0336,0330,0332,0210,0242,0211,0333,0331,0337,",
    "0243:0220,0336,0331,0332,0336,0321,0343,0332,0350,0334,0336,0342,0335,0335,0342,0337,0334,0334,0335,0304,0332,0330,0330,0337,0337,0333,",
    "01243:0333,0200,0336,0330,0332,0210,0243,0211,0333,0331,0337,",
    "0244:0220,0336,0331,0333,0336,0321,0343,0333,0350,0336,0335,0342,0334,0334,0342,0335,0337,0304,0333,0330,0330,0337,0337,0332,",
    "01244:0333,0200,0336,0330,0332,0210,0244,0211,0333,0331,0337,",
    "0245:0210,0332,0332,0362,0335,0203,0203,0203,0203,0334,0203,0363,0332,0332,0331,0211,",
    "01245:0333,0200,0336,0330,0332,0336,0245,0337,0333,0331,0337,",
    "0246:0210,0332,0332,0335,0306,0336,0330,0335,0335,0335,0321,0362,0203,0335,0335,0203,0364,0331,0350,0335,0337,0366,0333,0333,0333,0333,0334,0334,0334,0334,0367,0335,0336,0342,0334,0334,0342,0330,0330,0330,0330,0335,0335,0335,0304,0337,0211,",
    "01246:0333,0200,0336,0330,0332,0336,0246,",
    "0247:0330,0332,0336,0332,0336,0221,0333,0333,0333,0222,0333,0333,0333,0223,0333,0333,0333,0225,0333,0331,0331,0331,0332,0332,0332,0332,0332,0332,0332,0332,0332,0332,0332,0332,0333,0333,0226,0331,0331,0331,0333,0333,0333,0333,0333,0333,0333,0333,0333,0333,0333,0333,0333,0330,0333,0330,0330,0333,0330,0331,0332,0332,0332,0332,0332,0332,0332,0332,0332,0332,0332,0332,0227,0333,0333,0333,0230,0333,0331,0331,0331,0331,0332,0332,0332,0330,0332,0332,0332,0332,0332,0332,0333,0333,0231,0333,0333,0333,0232,0331,0333,0330,0333,0333,0233,0333,0333,0333,0234,0330,0330,0332,0330,0332,0332,0337,0337,",
    "01247:0333,0200,0336,0330,0332,0220,0336,0247,0337,0331,0333,0337,"
  ]
}</json>-->    <line x1="626" y1="159" x2="569" y2="159" style="stroke:#000000;stroke-width:5" />
    <line x1="569" y1="159" x2="540" y2="159" style="stroke:#000000;stroke-width:5" />
<path    d = "M540,159 C525,159 518,130 533,130" fill = "none" stroke-width = "5" stroke = "#000000" /><path    d = "M533,130 C547,130 525,159 511,159" fill = "none" stroke-width = "5" stroke = "#000000" /><path    d = "M511,159 C496,159 489,130 504,130" fill = "none" stroke-width = "5" stroke = "#000000" /><path    d = "M504,130 C518,130 496,159 482,159" fill = "none" stroke-width = "5" stroke = "#000000" /><path    d = "M482,159 C468,159 460,130 475,130" fill = "none" stroke-width = "5" stroke = "#000000" /><path    d = "M475,130 C489,130 468,159 453,159" fill = "none" stroke-width = "5" stroke = "#000000" /><path    d = "M453,159 C439,159 431,130 446,130" fill = "none" stroke-width = "5" stroke = "#000000" /><path    d = "M446,130 C460,130 439,159 424,159" fill = "none" stroke-width = "5" stroke = "#000000" />    <line x1="424" y1="159" x2="367" y2="159" style="stroke:#000000;stroke-width:5" />
<path    d = "M367,159 C352,159 345,130 359,130" fill = "none" stroke-width = "5" stroke = "#000000" /><path    d = "M359,130 C374,130 352,159 338,159" fill = "none" stroke-width = "5" stroke = "#000000" /><path    d = "M338,159 C323,159 316,130 330,130" fill = "none" stroke-width = "5" stroke = "#000000" /><path    d = "M330,130 C345,130 323,159 309,159" fill = "none" stroke-width = "5" stroke = "#000000" /><path    d = "M309,159 C294,159 287,130 302,130" fill = "none" stroke-width = "5" stroke = "#000000" /><path    d = "M302,130 C316,130 294,159 280,159" fill = "none" stroke-width = "5" stroke = "#000000" /><path    d = "M280,159 C266,159 258,130 273,130" fill = "none" stroke-width = "5" stroke = "#000000" /><path    d = "M273,130 C287,130 266,159 251,159" fill = "none" stroke-width = "5" stroke = "#000000" />    <line x1="251" y1="159" x2="193" y2="159" style="stroke:#000000;stroke-width:5" />
<path    d = "M193,159 C179,159 172,130 186,130" fill = "none" stroke-width = "5" stroke = "#000000" /><path    d = "M186,130 C201,130 179,159 164,159" fill = "none" stroke-width = "5" stroke = "#000000" /><path    d = "M164,159 C150,159 143,130 157,130" fill = "none" stroke-width = "5" stroke = "#000000" /><path    d = "M157,130 C172,130 150,159 136,159" fill = "none" stroke-width = "5" stroke = "#000000" /><path    d = "M136,159 C121,159 114,130 128,130" fill = "none" stroke-width = "5" stroke = "#000000" /><path    d = "M128,130 C143,130 121,159 107,159" fill = "none" stroke-width = "5" stroke = "#000000" /><path    d = "M107,159 C92,159 85,130 100,130" fill = "none" stroke-width = "5" stroke = "#000000" /><path    d = "M100,130 C114,130 92,159 78,159" fill = "none" stroke-width = "5" stroke = "#000000" />    <line x1="78" y1="159" x2="20" y2="159" style="stroke:#000000;stroke-width:5" />
<circle cx="13" cy = "159" r = "7.216286037619309" stroke = "#000000" stroke-width = "5" fill = "none" />
    <circle cx="222" cy = "159" r = "3.6081430188096544" stroke = "#000000" stroke-width = "5" fill = "#000000" />
    <circle cx="395" cy = "159" r = "3.6081430188096544" stroke = "#000000" stroke-width = "5" fill = "#000000" />
    <circle cx="569" cy = "159" r = "3.6081430188096544" stroke = "#000000" stroke-width = "5" fill = "#000000" />
    <line x1="540" y1="202" x2="597" y2="202" style="stroke:#000000;stroke-width:5" />
    <line x1="540" y1="231" x2="597" y2="231" style="stroke:#000000;stroke-width:5" />
    <line x1="569" y1="159" x2="569" y2="188" style="stroke:#000000;stroke-width:5" />
    <line x1="569" y1="188" x2="569" y2="202" style="stroke:#000000;stroke-width:5" />
    <line x1="569" y1="231" x2="569" y2="246" style="stroke:#000000;stroke-width:5" />
    <line x1="569" y1="246" x2="569" y2="275" style="stroke:#000000;stroke-width:5" />
    <line x1="367" y1="202" x2="424" y2="202" style="stroke:#000000;stroke-width:5" />
    <line x1="367" y1="231" x2="424" y2="231" style="stroke:#000000;stroke-width:5" />
    <line x1="395" y1="159" x2="395" y2="188" style="stroke:#000000;stroke-width:5" />
    <line x1="395" y1="188" x2="395" y2="202" style="stroke:#000000;stroke-width:5" />
    <line x1="395" y1="231" x2="395" y2="246" style="stroke:#000000;stroke-width:5" />
    <line x1="395" y1="246" x2="395" y2="275" style="stroke:#000000;stroke-width:5" />
    <line x1="193" y1="202" x2="251" y2="202" style="stroke:#000000;stroke-width:5" />
    <line x1="193" y1="231" x2="251" y2="231" style="stroke:#000000;stroke-width:5" />
    <line x1="222" y1="159" x2="222" y2="188" style="stroke:#000000;stroke-width:5" />
    <line x1="222" y1="188" x2="222" y2="202" style="stroke:#000000;stroke-width:5" />
    <line x1="222" y1="231" x2="222" y2="246" style="stroke:#000000;stroke-width:5" />
    <line x1="222" y1="246" x2="222" y2="275" style="stroke:#000000;stroke-width:5" />
    <line x1="222" y1="275" x2="222" y2="303" style="stroke:#000000;stroke-width:5" />
	<path d = "M193 303 L251 303 L222 332 L193 303 Z" stroke = "#000000" stroke-width = "5" fill = "none" />    <line x1="569" y1="275" x2="569" y2="303" style="stroke:#000000;stroke-width:5" />
	<path d = "M540 303 L597 303 L569 332 L540 303 Z" stroke = "#000000" stroke-width = "5" fill = "none" />    <line x1="395" y1="275" x2="395" y2="303" style="stroke:#000000;stroke-width:5" />
	<path d = "M367 303 L424 303 L395 332 L367 303 Z" stroke = "#000000" stroke-width = "5" fill = "none" />    <text x="482" y = "101" fill = "#000000" font-size = "28.865144150477217px" font-family = "Arial">L</text>
    <text x="309" y = "101" fill = "#000000" font-size = "28.865144150477217px" font-family = "Arial">L</text>
    <text x="136" y = "101" fill = "#000000" font-size = "28.865144150477217px" font-family = "Arial">L</text>
    <text x="157" y = "109" fill = "#000000" font-size = "14.432572075238609px" font-family = "Arial">3</text>
    <text x="330" y = "109" fill = "#000000" font-size = "14.432572075238609px" font-family = "Arial">2</text>
    <text x="504" y = "109" fill = "#000000" font-size = "14.432572075238609px" font-family = "Arial">1</text>
    <text x="605" y = "238" fill = "#000000" font-size = "28.865144150477217px" font-family = "Arial">C</text>
    <text x="431" y = "238" fill = "#000000" font-size = "28.865144150477217px" font-family = "Arial">C</text>
    <text x="258" y = "238" fill = "#000000" font-size = "28.865144150477217px" font-family = "Arial">C</text>
    <text x="287" y = "246" fill = "#000000" font-size = "14.432572075238609px" font-family = "Arial">3</text>
    <text x="460" y = "246" fill = "#000000" font-size = "14.432572075238609px" font-family = "Arial">2</text>
    <text x="634" y = "246" fill = "#000000" font-size = "14.432572075238609px" font-family = "Arial">1</text>
    <text x="662" y = "202" fill = "#000000" font-size = "28.865144150477217px" font-family = "Arial">OPEN</text>
</svg>